<svg width="188" height="53" viewBox="0 0 188 53" fill="none" xmlns="http://www.w3.org/2000/svg">
<path d="M83.616 22.556L79.59 38H75.036L72.572 27.836L70.02 38H65.466L61.55 22.556H65.576L67.798 33.798L70.548 22.556H74.684L77.324 33.798L79.568 22.556H83.616ZM97.0747 31.664C97.0747 32.016 97.0527 32.3827 97.0087 32.764H88.4947C88.5533 33.5267 88.7953 34.1133 89.2207 34.524C89.6607 34.92 90.196 35.118 90.8267 35.118C91.7653 35.118 92.418 34.722 92.7847 33.93H96.7887C96.5833 34.7367 96.2093 35.4627 95.6667 36.108C95.1387 36.7533 94.4713 37.2593 93.6647 37.626C92.858 37.9927 91.956 38.176 90.9587 38.176C89.756 38.176 88.6853 37.9193 87.7467 37.406C86.808 36.8927 86.0747 36.1593 85.5467 35.206C85.0187 34.2527 84.7547 33.138 84.7547 31.862C84.7547 30.586 85.0113 29.4713 85.5247 28.518C86.0527 27.5647 86.786 26.8313 87.7247 26.318C88.6633 25.8047 89.7413 25.548 90.9587 25.548C92.1467 25.548 93.2027 25.7973 94.1267 26.296C95.0507 26.7947 95.7693 27.506 96.2827 28.43C96.8107 29.354 97.0747 30.432 97.0747 31.664ZM93.2247 30.674C93.2247 30.0287 93.0047 29.5153 92.5647 29.134C92.1247 28.7527 91.5747 28.562 90.9147 28.562C90.284 28.562 89.7487 28.7453 89.3087 29.112C88.8833 29.4787 88.6193 29.9993 88.5167 30.674H93.2247ZM109.113 22.556V25.57H102.821V28.826H107.529V31.752H102.821V38H99.0593V22.556H109.113ZM112.983 24.448C112.323 24.448 111.78 24.2573 111.355 23.876C110.944 23.48 110.739 22.996 110.739 22.424C110.739 21.8373 110.944 21.3533 111.355 20.972C111.78 20.576 112.323 20.378 112.983 20.378C113.628 20.378 114.156 20.576 114.567 20.972C114.992 21.3533 115.205 21.8373 115.205 22.424C115.205 22.996 114.992 23.48 114.567 23.876C114.156 24.2573 113.628 24.448 112.983 24.448ZM114.853 25.724V38H111.091V25.724H114.853ZM125.059 25.592C126.496 25.592 127.64 26.0613 128.491 27C129.356 27.924 129.789 29.2 129.789 30.828V38H126.049V31.334C126.049 30.5127 125.836 29.8747 125.411 29.42C124.986 28.9653 124.414 28.738 123.695 28.738C122.976 28.738 122.404 28.9653 121.979 29.42C121.554 29.8747 121.341 30.5127 121.341 31.334V38H117.579V25.724H121.341V27.352C121.722 26.8093 122.236 26.384 122.881 26.076C123.526 25.7533 124.252 25.592 125.059 25.592ZM131.655 31.84C131.655 30.5787 131.89 29.4713 132.359 28.518C132.843 27.5647 133.496 26.8313 134.317 26.318C135.138 25.8047 136.055 25.548 137.067 25.548C137.932 25.548 138.688 25.724 139.333 26.076C139.993 26.428 140.499 26.89 140.851 27.462V25.724H144.613V38H140.851V36.262C140.484 36.834 139.971 37.296 139.311 37.648C138.666 38 137.91 38.176 137.045 38.176C136.048 38.176 135.138 37.9193 134.317 37.406C133.496 36.878 132.843 36.1373 132.359 35.184C131.89 34.216 131.655 33.1013 131.655 31.84ZM140.851 31.862C140.851 30.9233 140.587 30.1827 140.059 29.64C139.546 29.0973 138.915 28.826 138.167 28.826C137.419 28.826 136.781 29.0973 136.253 29.64C135.74 30.168 135.483 30.9013 135.483 31.84C135.483 32.7787 135.74 33.5267 136.253 34.084C136.781 34.6267 137.419 34.898 138.167 34.898C138.915 34.898 139.546 34.6267 140.059 34.084C140.587 33.5413 140.851 32.8007 140.851 31.862ZM154.815 25.592C156.252 25.592 157.396 26.0613 158.247 27C159.112 27.924 159.545 29.2 159.545 30.828V38H155.805V31.334C155.805 30.5127 155.592 29.8747 155.167 29.42C154.741 28.9653 154.169 28.738 153.451 28.738C152.732 28.738 152.16 28.9653 151.735 29.42C151.309 29.8747 151.097 30.5127 151.097 31.334V38H147.335V25.724H151.097V27.352C151.478 26.8093 151.991 26.384 152.637 26.076C153.282 25.7533 154.008 25.592 154.815 25.592ZM161.411 31.862C161.411 30.586 161.668 29.4713 162.181 28.518C162.709 27.5647 163.435 26.8313 164.359 26.318C165.298 25.8047 166.368 25.548 167.571 25.548C169.111 25.548 170.394 25.9513 171.421 26.758C172.462 27.5647 173.144 28.7013 173.467 30.168H169.463C169.126 29.2293 168.473 28.76 167.505 28.76C166.816 28.76 166.266 29.0313 165.855 29.574C165.444 30.102 165.239 30.8647 165.239 31.862C165.239 32.8593 165.444 33.6293 165.855 34.172C166.266 34.7 166.816 34.964 167.505 34.964C168.473 34.964 169.126 34.4947 169.463 33.556H173.467C173.144 34.9933 172.462 36.1227 171.421 36.944C170.38 37.7653 169.096 38.176 167.571 38.176C166.368 38.176 165.298 37.9193 164.359 37.406C163.435 36.8927 162.709 36.1593 162.181 35.206C161.668 34.2527 161.411 33.138 161.411 31.862ZM187.051 31.664C187.051 32.016 187.029 32.3827 186.985 32.764H178.471C178.53 33.5267 178.772 34.1133 179.197 34.524C179.637 34.92 180.173 35.118 180.803 35.118C181.742 35.118 182.395 34.722 182.761 33.93H186.765C186.56 34.7367 186.186 35.4627 185.643 36.108C185.115 36.7533 184.448 37.2593 183.641 37.626C182.835 37.9927 181.933 38.176 180.935 38.176C179.733 38.176 178.662 37.9193 177.723 37.406C176.785 36.8927 176.051 36.1593 175.523 35.206C174.995 34.2527 174.731 33.138 174.731 31.862C174.731 30.586 174.988 29.4713 175.501 28.518C176.029 27.5647 176.763 26.8313 177.701 26.318C178.64 25.8047 179.718 25.548 180.935 25.548C182.123 25.548 183.179 25.7973 184.103 26.296C185.027 26.7947 185.746 27.506 186.259 28.43C186.787 29.354 187.051 30.432 187.051 31.664ZM183.201 30.674C183.201 30.0287 182.981 29.5153 182.541 29.134C182.101 28.7527 181.551 28.562 180.891 28.562C180.261 28.562 179.725 28.7453 179.285 29.112C178.86 29.4787 178.596 29.9993 178.493 30.674H183.201Z" fill="white"/>
<mask id="mask0_2_380" style="mask-type:alpha" maskUnits="userSpaceOnUse" x="0" y="0" width="34" height="53">
<path d="M0 52.7271L7.21813 52.7271C21.7783 52.7271 33.5817 40.9237 33.5817 26.3635L33.5817 16.7908C33.5817 7.51748 26.0642 -5.11272e-05 16.7908 -5.19379e-05C7.51752 -5.27486e-05 3.95235e-06 7.51746 3.14165e-06 16.7908L0 52.7271Z" fill="#C4C4C4"/>
</mask>
<g mask="url(#mask0_2_380)">
<rect x="-28.9498" y="-34.0447" width="77.1993" height="115.799" fill="url(#paint0_linear_2_380)"/>
</g>
<mask id="mask1_2_380" style="mask-type:alpha" maskUnits="userSpaceOnUse" x="0" y="14" width="43" height="39">
<path d="M0 52.7273L23.9704 52.7273C34.4801 52.7273 43 44.2074 43 33.6977C43 23.1879 34.4801 14.6681 23.9704 14.6681L21.5 14.6681C9.62588 14.6681 2.48572e-06 24.2939 1.44766e-06 36.168L0 52.7273Z" fill="#C4C4C4"/>
</mask>
<g mask="url(#mask1_2_380)">
<rect x="-64.6928" y="-2.16162" width="107.693" height="71.7953" fill="url(#paint1_linear_2_380)"/>
</g>
<defs>
<linearGradient id="paint0_linear_2_380" x1="9.64987" y1="-34.0447" x2="9.64987" y2="81.7542" gradientUnits="userSpaceOnUse">
<stop stop-color="white"/>
<stop offset="1" stop-color="white" stop-opacity="0"/>
</linearGradient>
<linearGradient id="paint1_linear_2_380" x1="-10.8463" y1="-2.16162" x2="-10.8463" y2="69.6337" gradientUnits="userSpaceOnUse">
<stop stop-color="white"/>
<stop offset="1" stop-color="white" stop-opacity="0"/>
</linearGradient>
</defs>
</svg>
