<svg width="70" height="69" viewBox="0 0 70 69" fill="none" xmlns="http://www.w3.org/2000/svg">
<path opacity="0.4" d="M3.1875 47.0388C3.1875 47.0388 3.67887 53.0529 3.79306 54.9492C3.94532 57.4926 4.92806 60.3335 6.56827 62.3059C8.88325 65.1019 11.61 66.0881 15.2503 66.095C19.5308 66.1019 50.6567 66.1019 54.9371 66.095C58.5774 66.0881 61.3042 65.1019 63.6192 62.3059C65.2594 60.3335 66.2421 57.4926 66.3978 54.9492C66.5086 53.0529 67 47.0388 67 47.0388" stroke="white" stroke-width="5" stroke-linecap="round" stroke-linejoin="round"/>
<path d="M22.8837 11.9243V10.6405C22.8837 6.41883 26.3025 3 30.5242 3H39.4588C43.677 3 47.0993 6.41883 47.0993 10.6405L47.1027 11.9243" stroke="white" stroke-width="5" stroke-linecap="round" stroke-linejoin="round"/>
<path d="M34.9919 51.1947V46.717" stroke="white" stroke-width="5" stroke-linecap="round" stroke-linejoin="round"/>
<path fill-rule="evenodd" clip-rule="evenodd" d="M3 22.5112V34.5083C9.63697 38.8856 17.5889 41.9515 26.3159 43.1661C27.3609 39.3562 30.797 36.5637 34.9737 36.5637C39.0846 36.5637 42.5899 39.3562 43.5658 43.2007C52.3274 41.9861 60.3104 38.9202 66.982 34.5083V22.5112C66.982 16.6494 62.2655 11.9294 56.4037 11.9294H13.6129C7.75107 11.9294 3 16.6494 3 22.5112Z" stroke="white" stroke-width="5" stroke-linecap="round" stroke-linejoin="round"/>
</svg>
